<svg width="95" height="47" viewBox="0 0 95 47" fill="none" xmlns="http://www.w3.org/2000/svg">
<path d="M23.824 20.488V24.424H21.424V33.496H17.368V13H21.424V20.488H23.824ZM11.8 13.552C11.8 16.648 11.512 19.432 11.008 21.832L16.936 30.184L13.624 32.512L9.544 26.536C7.864 30.376 5.296 32.512 2.176 32.536V28.36C5.464 27.976 7.648 21.976 7.672 13.408L11.8 13.552ZM46.6099 20.488V24.424H44.2099V33.496H40.1539V13H44.2099V20.488H46.6099ZM29.6899 28.888H33.8899C35.8339 28.888 37.9459 28.528 39.1939 27.952V31.552C37.9459 32.176 35.7379 32.536 33.7699 32.536H25.6579V21.16H33.2899V17.128H25.6099V13.48H37.3219V24.76H29.6899V28.888Z" fill="#F26A0E"/>
<path d="M70.824 20.488V24.424H68.424V33.496H64.368V13H68.424V20.488H70.824ZM49.872 32.536V13.48H61.8V32.536H49.872ZM53.928 17.248V28.768H57.744V17.248H53.928ZM94.431 20.488V24.424H92.031V33.496H87.975V13H92.031V20.488H94.431ZM77.511 28.888H81.711C83.655 28.888 85.767 28.528 87.015 27.952V31.552C85.767 32.176 83.559 32.536 81.591 32.536H73.479V21.16H81.111V17.128H73.431V13.48H85.143V24.76H77.511V28.888Z" fill="#F26A0E"/>
<circle cx="23.5" cy="23.5" r="23.3" stroke="black" stroke-width="0.4"/>
<path fill-rule="evenodd" clip-rule="evenodd" d="M94 0C81.2975 0 71 10.2975 71 23C71 35.7025 81.2975 46 94 46V45.6C81.5184 45.6 71.4 35.4816 71.4 23C71.4 10.5184 81.5184 0.4 94 0.4V0Z" fill="black"/>
<path fill-rule="evenodd" clip-rule="evenodd" d="M48 0.4V0C60.7025 0 71 10.2975 71 23C71 35.7025 60.7025 46 48 46V45.6C60.4816 45.6 70.6 35.4816 70.6 23C70.6 10.5184 60.4816 0.4 48 0.4Z" fill="black"/>
</svg>
